<svg viewBox="100 100 300 300" xml:space="preserve" xmlns="http://www.w3.org/2000/svg"><path d="M355.295 269.514 325.36 179h27.68c1.122 0 1.999-.957 1.862-2.071-1.032-8.427-8.214-14.929-16.92-14.929h-18.289l-.187-.562-.179.562h-17.501c-9.415 0-24.68-17-34.095-17H231.89c-9.415 0-24.68 17-34.095 17H179.15l-.187-.562-.179.562H162.04c-8.706 0-15.888 6.502-16.92 14.929-.136 1.114.74 2.071 1.862 2.071h26.38l-28.658 90.584.121.273c.225 9.521 15.766 17.323 34.914 17.323 19.2 0 34.775-7.667 34.918-17.224l.094-.471L184.817 179H240v160.947c-29 1.034-54.235 6.303-59.104 13.938-.784 1.229.47 2.115 1.928 2.115H317.2c1.458 0 1.7-.886.916-2.115-4.87-7.635-27.116-12.904-60.116-13.938V179h55.906l-28.658 90.584.121.273c.225 9.521 15.766 17.323 34.914 17.323 19.2 0 34.775-7.902 34.918-17.458l.094-.208zM156.553 269l22.648-71.214L202.875 269h-46.322zm140.543 0 22.647-71.214L343.417 269h-46.321z" fill="#ffffff" class="fill-000000"></path></svg>