<svg viewBox="0 0 512 512" xml:space="preserve" xmlns="http://www.w3.org/2000/svg"><path d="M459.12 331.78H358.96c-1.89 0-3.71-.77-5.02-2.13-15.25-15.72-24.4-33.71-26.48-52.02-.45-3.94-.57-7.84-.68-11.61-.1-3.25-.19-6.33-.48-9.34a7.11 7.11 0 0 1-.01-1.22 6.988 6.988 0 0 1 6.98-6.46h125.84c3.87 0 7.01 3.13 7.01 7v68.78c0 3.86-3.14 7-7 7zm-97.14-14h90.13V263H340.69c.03.87.06 1.73.08 2.59.11 3.65.22 7.09.6 10.46 1.64 14.42 8.75 28.79 20.61 41.73z" fill="#1b3954" class="fill-1b3954"></path><path d="M459.1 388.35c-1.1 0-2.2-.26-3.21-.78-4.5-2.32-9.36-4.66-15.29-7.38-4.43-2.02-8.99-4.04-13.39-6-13.06-5.79-26.57-11.77-39.26-18.98a6.996 6.996 0 0 1-3.54-6.09v-24.36c0-3.87 3.13-7 7-7h67.7c3.87 0 7 3.13 7 7v56.58c0 2.44-1.27 4.71-3.36 5.98a7.027 7.027 0 0 1-3.65 1.03zm-60.69-43.34c11.1 6.03 22.96 11.29 34.47 16.39 4.44 1.97 9.04 4 13.54 6.06 2 .91 3.88 1.79 5.68 2.64v-38.33h-53.7v13.24z" fill="#1b3954" class="fill-1b3954"></path><path d="M391.41 356.13c-1.19 0-2.39-.3-3.46-.91-6.1-3.46-11.53-6.93-16.61-10.59-6.34-4.56-12.19-9.6-17.4-14.98a7 7 0 0 1-1.41-7.6 6.995 6.995 0 0 1 6.44-4.27h32.44c3.87 0 7 3.13 7 7v24.35c0 2.49-1.33 4.8-3.48 6.05-1.09.63-2.31.95-3.52.95zm-13.92-24.35c.67.5 1.34 1 2.02 1.49 1.59 1.14 3.21 2.27 4.89 3.38v-4.86h-6.91zM120.58 235.35c-.31 0-.62-.02-.93-.06a255.759 255.759 0 0 1-33.98-6.92 253.443 253.443 0 0 1-35.62-12.72 6.996 6.996 0 0 1-4.16-6.4v-22.02c0-3.87 3.13-7 7-7h67.69c3.87 0 7 3.13 7 7v41.12a7 7 0 0 1-7 7zm-60.69-30.7c9.55 4.03 19.45 7.46 29.5 10.22 7.93 2.19 16.04 3.98 24.2 5.35v-25.99h-53.7v10.42zM459.11 263h-67.7c-3.87 0-7-3.13-7-7v-68.78c0-3.87 3.13-7 7-7h67.7c3.87 0 7 3.13 7 7v12.26c0 3.87-3.13 7-7 7s-7-3.13-7-7v-5.26h-53.7V249h53.7v-4.75c0-3.87 3.13-7 7-7s7 3.13 7 7V256c0 3.87-3.14 7-7 7z" fill="#1b3954" class="fill-1b3954"></path><path d="M459.11 228.61c-.46 0-.92-.04-1.37-.13a7.35 7.35 0 0 1-1.31-.4c-.42-.18-.83-.4-1.21-.65s-.74-.55-1.06-.87c-.33-.32-.62-.68-.87-1.06s-.47-.79-.65-1.21a7.35 7.35 0 0 1-.4-1.31c-.09-.45-.13-.91-.13-1.37 0-.45.04-.91.13-1.37.09-.44.23-.88.4-1.3.18-.43.4-.83.65-1.21.25-.39.54-.75.87-1.07.32-.32.68-.61 1.06-.87.38-.25.79-.47 1.21-.64.42-.18.86-.31 1.31-.4.9-.18 1.83-.18 2.74 0 .44.09.88.22 1.3.4.43.17.83.39 1.21.64.39.26.74.55 1.07.87.32.32.61.68.87 1.07.25.38.47.78.64 1.21.17.42.31.86.4 1.3.09.46.14.92.14 1.37 0 .46-.05.92-.14 1.37-.09.45-.23.89-.4 1.31-.17.42-.39.83-.64 1.21-.26.38-.55.74-.87 1.06-.33.32-.68.62-1.07.87-.38.25-.78.47-1.21.65-.42.17-.86.31-1.3.4-.46.09-.92.13-1.37.13zM391.41 263.01h-58.14c-3.69 0-6.71-2.86-6.98-6.48-.26-2.76-.67-5.13-1.24-7.25-5.42-20.08-29.31-30.84-50.1-31.09-5.61-.05-11.44.38-17.87 1.37a6.991 6.991 0 0 1-8.06-6.91v-25.41c0-3.87 3.13-7 7-7h135.4c3.87 0 7 3.13 7 7V256c-.01 3.86-3.15 7.01-7.01 7.01zm-52.07-14h45.07v-54.78H263v10.48c4.18-.4 8.18-.57 12.11-.52 25.25.3 55.87 13.4 63.44 41.43.3 1.09.56 2.22.79 3.39z" fill="#1b3954" class="fill-1b3954"></path><path d="M153.26 237.54c-11.13 0-22.34-.75-33.59-2.26a6.999 6.999 0 0 1-6.07-6.94v-41.12c0-3.87 3.13-7 7-7H256c3.87 0 7 3.13 7 7v25.41a7 7 0 0 1-5.94 6.92c-10.36 1.59-20.96 4.43-31.22 7.17-6.56 1.75-13.34 3.56-20.11 5.08-17.14 3.83-34.7 5.74-52.47 5.74zm-25.67-15.4c25.51 2.77 50.75 1.42 75.1-4.01 6.49-1.45 13.13-3.22 19.55-4.94 8.72-2.33 17.68-4.72 26.77-6.45v-12.52H127.59v27.92zM120.59 125.45h-67.7c-3.87 0-7-3.13-7-7V49.67c0-3.87 3.13-7 7-7h67.7c3.87 0 7 3.13 7 7v68.77c0 3.87-3.13 7.01-7 7.01zm-60.7-14h53.7V56.67h-53.7v54.78z" fill="#1b3954" class="fill-1b3954"></path><path d="M256 125.45H120.59c-3.87 0-7-3.13-7-7V49.68c0-3.87 3.13-7 7-7H256c3.87 0 7 3.13 7 7v68.77c0 3.87-3.13 7-7 7zm-128.41-14H249V56.68H127.59v54.77z" fill="#1b3954" class="fill-1b3954"></path><path d="M188.3 194.22H52.89c-3.87 0-7-3.13-7-7v-42.21c0-3.87 3.13-7 7-7s7 3.13 7 7v35.21H181.3v-54.77H52.89c-3.87 0-7-3.13-7-7s3.13-7 7-7H188.3c3.87 0 7 3.13 7 7v68.77c0 3.87-3.14 7-7 7zM459.11 194.22h-135.4c-3.87 0-7-3.13-7-7v-68.77c0-3.87 3.13-7 7-7h135.41c3.87 0 7 3.13 7 7v68.77a7.01 7.01 0 0 1-7.01 7zm-128.4-14h121.41v-54.77H330.71v54.77z" fill="#1b3954" class="fill-1b3954"></path><path d="M323.71 194.22H188.3c-3.87 0-7-3.13-7-7v-68.77c0-3.87 3.13-7 7-7h135.41c3.87 0 7 3.13 7 7v68.77c0 3.87-3.14 7-7 7zm-128.41-14h121.41v-54.77H195.3v54.77z" fill="#1b3954" class="fill-1b3954"></path><path d="M459.12 469.33c-3.87 0-7-3.13-7-7v-68.41c-.01-.12-.01-.25-.01-.37v-7.9c-3.45-1.71-7.19-3.49-11.5-5.46-4.43-2.02-8.99-4.04-13.39-6-13.06-5.79-26.57-11.77-39.26-18.98-6.09-3.46-11.53-6.92-16.61-10.58-6.34-4.56-12.19-9.6-17.4-14.98-15.24-15.71-24.39-33.7-26.47-52.02-.45-3.94-.57-7.84-.68-11.61-.1-3.25-.19-6.33-.48-9.34a7.001 7.001 0 0 1 6.3-7.64c3.87-.38 7.27 2.45 7.64 6.3.33 3.47.44 6.92.54 10.25.11 3.65.22 7.09.6 10.46 1.73 15.21 9.55 30.38 22.62 43.85 4.64 4.79 9.86 9.29 15.52 13.36 4.68 3.37 9.7 6.57 15.35 9.78 12.09 6.87 25.27 12.71 38.02 18.36 4.44 1.97 9.04 4 13.54 6.06 6.14 2.81 11.19 5.24 15.89 7.67 2.33 1.2 3.79 3.6 3.79 6.22v11.83c.01.12.01.25.01.37v68.78c-.02 3.86-3.16 7-7.02 7z" fill="#000000" class="fill-16ade1"></path><path d="M419.06 469.33H52.88c-3.87 0-7-3.13-7-7v-68.78c0-.13 0-.25.01-.37v-68.03c-.01-.12-.01-.25-.01-.37V256c0-.13 0-.25.01-.37v-46.38c0-2.37 1.2-4.58 3.19-5.87a7.015 7.015 0 0 1 6.66-.53 239.9 239.9 0 0 0 33.65 12.02c10.46 2.88 21.22 5.08 32 6.53.04 0 .09.01.13.02 27.58 3.69 54.89 2.59 81.17-3.27 6.49-1.45 13.13-3.22 19.55-4.94 10.62-2.84 21.59-5.77 32.7-7.48 7.2-1.11 13.8-1.61 20.17-1.53 25.25.3 55.87 13.4 63.44 41.43.79 2.92 1.34 6.11 1.68 9.72a7 7 0 0 1-6.32 7.62 6.994 6.994 0 0 1-7.62-6.32c-.26-2.81-.67-5.22-1.26-7.37-5.42-20.08-29.31-30.84-50.1-31.09-5.61-.05-11.44.38-17.87 1.37-10.36 1.6-20.97 4.43-31.22 7.17-6.56 1.75-13.34 3.56-20.11 5.08-27.86 6.21-56.77 7.39-85.95 3.5-.04-.01-.09-.01-.13-.02a255.759 255.759 0 0 1-33.98-6.92c-8.73-2.4-17.37-5.28-25.78-8.6V256c0 .13 0 .25-.01.37v68.04c.01.12.01.25.01.37v68.77c0 .13 0 .25-.01.37v61.41h359.17c3.87 0 7 3.13 7 7s-3.12 7-6.99 7z" fill="#000000" class="fill-16ade1"></path></svg>