<svg viewBox="0 0 6.827 6.827" xml:space="preserve" xmlns="http://www.w3.org/2000/svg" shape-rendering="geometricPrecision" text-rendering="geometricPrecision" image-rendering="optimizeQuality" fill-rule="evenodd" clip-rule="evenodd"><g fill-rule="nonzero"><path d="M2.369 5.563a.053.053 0 0 0 0-.107H.96V1.41L2.942 2.59v.32a.053.053 0 0 0 .107 0v-.35a.053.053 0 0 0-.026-.046l-.027.045.027-.045-2.086-1.24a.053.053 0 0 0-.083.044v4.191c0 .03.023.054.053.054h1.462z" fill="#000000" class="fill-000000"></path><path d="M2.357 3.018a6.096 6.096 0 0 1 1.787-.277 5.902 5.902 0 0 1 1.792.278l-.016.051.016-.05a.053.053 0 0 1 .037.051V5.51c0 .03-.024.054-.053.054H2.369a.053.053 0 0 1-.053-.054V3.07c0-.025.017-.047.041-.052zm1.787-.171a5.979 5.979 0 0 0-1.722.262v2.347h3.445V3.109a5.79 5.79 0 0 0-1.723-.262zM1.272 2.427h.731c.03 0 .054.024.054.053v.307c0 .03-.024.054-.054.054h-.73a.053.053 0 0 1-.054-.054V2.48c0-.03.024-.053.053-.053zm.678.107h-.624v.2h.624v-.2zM1.272 3.16h.731c.03 0 .054.024.054.054v.307c0 .029-.024.053-.054.053h-.73a.053.053 0 0 1-.054-.053v-.307c0-.03.024-.054.053-.054zm.678.107h-.624v.2h.624v-.2zM1.272 3.894h.731c.03 0 .054.023.054.053v.307c0 .03-.024.053-.054.053h-.73a.053.053 0 0 1-.054-.053v-.307c0-.03.024-.053.053-.053zM1.95 4h-.624v.2h.624V4zM1.272 4.627h.731c.03 0 .054.024.054.053v.307c0 .03-.024.053-.054.053h-.73a.053.053 0 0 1-.054-.053V4.68c0-.03.024-.053.053-.053zm.678.106h-.624v.2h.624v-.2z" fill="#000000" class="fill-000000"></path><g><path d="M2.787 3.576a.053.053 0 0 0 0 .107h2.715a.053.053 0 0 0 0-.107H2.787zM2.787 3.994a.053.053 0 0 0 0 .106h2.715a.053.053 0 0 0 0-.106H2.787zM2.787 4.412a.053.053 0 0 0 0 .106h2.715a.053.053 0 0 0 0-.106H2.787zM2.787 4.83a.053.053 0 0 0 0 .106h2.715a.053.053 0 0 0 0-.107H2.787z" fill="#000000" class="fill-000000"></path></g></g><path fill="#edeae3" stroke="#373435" stroke-width=".007" stroke-linecap="round" stroke-linejoin="round" d="M1.95 2.734v-.2h-.624v.2zM1.95 3.267h-.624v.2h.624zM1.95 4h-.624v.2h.624zM1.95 4.733h-.624v.2h.624z" class="fill-edeae3 stroke-373435"></path><path d="M2.787 3.576h2.715a.053.053 0 0 1 0 .107H2.787a.053.053 0 0 1 0-.107zm0 .418h2.715a.053.053 0 0 1 0 .106H2.787a.053.053 0 0 1 0-.106zm-.365-.885v2.347h3.445V3.109a5.79 5.79 0 0 0-1.723-.262A5.812 5.812 0 0 0 3 2.964a6.382 6.382 0 0 0-.577.145zm.311 1.356c0-.03.024-.053.054-.053h2.715a.053.053 0 0 1 0 .106H2.787a.053.053 0 0 1-.054-.053zm0 .418c0-.03.024-.054.054-.054h2.715a.053.053 0 0 1 0 .107H2.787a.053.053 0 0 1-.054-.053z" fill="#ffffff" stroke="#373435" stroke-width=".007" stroke-linecap="round" stroke-linejoin="round" class="fill-d5c692 stroke-373435"></path><path d="M1.272 2.427h.731c.03 0 .054.024.054.053v.307c0 .03-.024.054-.054.054h-.73a.053.053 0 0 1-.054-.054V2.48c0-.03.024-.053.053-.053zm1.085.591c.195-.06.39-.11.585-.15V2.59L.96 1.41v4.045h1.356V3.07c0-.025.017-.047.041-.052zm-1.085.142h.731c.03 0 .054.024.054.054v.307c0 .029-.024.053-.054.053h-.73a.053.053 0 0 1-.054-.053v-.307c0-.03.024-.054.053-.054zm0 .734h.731c.03 0 .054.023.054.053v.307c0 .03-.024.053-.054.053h-.73a.053.053 0 0 1-.054-.053v-.307c0-.03.024-.053.053-.053zm0 .733h.731c.03 0 .054.024.054.053v.307c0 .03-.024.053-.054.053h-.73a.053.053 0 0 1-.054-.053V4.68c0-.03.024-.053.053-.053z" fill="#ffffff" stroke="#373435" stroke-width=".007" stroke-linecap="round" stroke-linejoin="round" class="fill-c3ae7e stroke-373435"></path><path fill="none" d="M0 0h6.827v6.827H0z"></path></svg>