<svg viewBox="0 0 512 512" xml:space="preserve" xmlns="http://www.w3.org/2000/svg"><path d="m359.456 194.413-15.481 57.809 63.955 17.145.988-3.638.014-.084.028-.085 13.436-50.166.028-.085.028-.084.974-3.666-63.97-17.146zm68.735 26.112-11.646 43.482 57.807 15.481 11.646-43.482-57.807-15.481zM153.547 117.148a2.247 2.247 0 0 0-.227-1.691 2.118 2.118 0 0 0-1.353-1.044l-32.359-8.687-21.515 80.34c-2.059 7.698-4.119 15.368-6.177 23.038l31.866 8.545a2.647 2.647 0 0 0 2.072-.282 2.738 2.738 0 0 0 1.283-1.636l20.036-74.783.014-.085.042-.17.07-.225 6.248-23.32zm-63.633 72.669 18.316-68.383c-6.317 1.806-12.111 4.878-16.919 9.052-5.894 5.104-10.308 11.844-12.422 19.739-2.128 7.896-1.664 15.933.888 23.293 2.086 6.005 5.556 11.589 10.137 16.299zm198.184 59.162-.028.902 36.603 9.813a9.895 9.895 0 0 0 7.417-.987c2.087-1.213 3.722-3.158 4.47-5.584l.027-.111.043-.113.027-.113 17.018-63.504.015-.085.014-.028.015-.057a8.728 8.728 0 0 0-.916-6.457 8.759 8.759 0 0 0-5.287-4.061L157.86 127.779l-3.044 11.364 101.079 27.099c1.861.48 2.945 2.369 2.453 4.23-.479 1.832-2.383 2.933-4.229 2.453l-101.095-27.1-16.961 63.308 120.453 32.287.098-.197.056-.112.042-.057.014-.057.17-.311h.014l.042-.084.057-.084.014-.029.056-.084.028-.057.028-.057.056-.084.028-.028.044-.085.057-.084h.014l.056-.113.043-.057.014-.027.07-.113.028-.029.042-.056.058-.112h.014l.057-.085.056-.085.015-.027.07-.085.042-.056.027-.029.057-.113.028-.027.058-.057.057-.084.069-.085.057-.084.028-.029.07-.084.027-.028.042-.057.072-.084.014-.029.07-.056.057-.085.014-.027.07-.085.042-.058.042-.027.072-.084.028-.028.042-.058.084-.084.084-.084.057-.085h.014l.072-.085.056-.057.028-.027.084-.085.028-.028.057-.056.084-.085.086-.084.056-.058.015-.028.084-.084.042-.027.042-.058.085-.056.014-.028.072-.056.084-.086.099-.084.042-.057h.042l.084-.085.03-.028.056-.056.084-.085h.015l.084-.057.07-.056.014-.028.101-.057.042-.057.042-.027.084-.085h.028l.07-.057.084-.085h.014l.129-.084.027-.029.099-.084.056-.027.085-.057.086-.057.042-.057.126-.085h.015l.14-.084v-.028l.143-.085.028-.028.112-.057.069-.056.059-.028.098-.057.043-.027.14-.085h.015l.142-.085.015-.028.126-.056.042-.028.099-.058.086-.056.07-.028.112-.056.027-.028.141-.085.156-.085h.028l.126-.056.057-.028.086-.057.098-.028.057-.056.112-.057h.042l.156-.085.154-.056h.028l.126-.058.058-.028.099-.056.084-.028.07-.027.128-.058h.028l.154-.056v-.028l.154-.056h.042l.129-.058h.056l.099-.028.098-.057h.059l.14-.056h.028l.154-.057h.015l.156-.057h.042l.112-.056h.084l.086-.028.112-.028.057-.027.14-.029h.028l.156-.057h.014l.154-.027.043-.028.128-.028h.084l.084-.027.112-.029h.059l.154-.028.014-.028.169-.027h.014l.156-.029h.056l.112-.027h.085l.086-.028h.182l.155-.028h.014l.17-.028h.028l.141-.028h.184l.085-.027h.254l.183-.029h.352l.07-.027H271.399c4.609 0 8.798 1.889 11.814 4.878.817.817 1.537 1.749 2.171 2.707l.086.112.014.057.311.48v.027l.196.338.099.142v.028l.099.169.254.536h.015l.155.338.015.029.014.027.141.311.014.027.057.17.014.027.057.142.027.056.114.311.028.057.042.141.028.057.042.142.057.169.027.084.042.113.015.084.042.113.029.085.028.112.028.057.028.142.056.169.015.112.027.085.028.113.028.084.014.113.028.084.042.197.028.113.014.084.03.141v.057l.027.142.015.056.028.142.014.085.014.112.015.085.014.141.014.057.015.141.014.057.015.169v.028l.027.169v.028l.015.17v.057l.014.168v.029l.028.168v.254l.014.169v.028l.015.197V248.979zm-16.568-71.4c-1.848-.479-2.946-2.397-2.453-4.229.493-1.862 2.384-2.962 4.229-2.455l24.054 6.43a3.483 3.483 0 0 1 2.453 4.259 3.476 3.476 0 0 1-4.229 2.453l-24.054-6.458zM35.477 166.355c.605 1.805-.381 3.751-2.185 4.371a3.48 3.48 0 0 1-4.371-2.199 55.945 55.945 0 0 1-1.002-32.345 56.027 56.027 0 0 1 6.485-15.03 56.06 56.06 0 0 1 10.562-12.492c1.423-1.269 3.609-1.129 4.878.311 1.254 1.41 1.128 3.609-.297 4.879a48.733 48.733 0 0 0-9.263 10.94c-2.467 3.976-4.399 8.403-5.682 13.169s-1.819 9.559-1.677 14.212v.058a49.104 49.104 0 0 0 2.552 14.126zm12.957-5.046a3.506 3.506 0 0 1-2.255 4.371 3.49 3.49 0 0 1-4.357-2.285 41.688 41.688 0 0 1-1.932-11.759 42.36 42.36 0 0 1 1.425-11.872 42.248 42.248 0 0 1 4.694-10.97 42.12 42.12 0 0 1 7.572-9.249c1.425-1.269 3.609-1.156 4.892.254s1.185 3.581-.225 4.879a35.344 35.344 0 0 0-6.345 7.67 35.438 35.438 0 0 0-3.906 9.221 35.57 35.57 0 0 0-1.212 9.926 34.546 34.546 0 0 0 1.649 9.814zm13.76-5.217c.495 1.832-.605 3.721-2.453 4.229a3.476 3.476 0 0 1-4.229-2.453 27.034 27.034 0 0 1-.946-7.135c-.014-2.34.297-4.765.932-7.162a26.715 26.715 0 0 1 2.777-6.654 27.339 27.339 0 0 1 4.399-5.725c1.353-1.354 3.538-1.326 4.878.027a3.44 3.44 0 0 1-.014 4.879 20.396 20.396 0 0 0-3.285 4.259 21.151 21.151 0 0 0-2.06 4.99 20.789 20.789 0 0 0-.704 5.386c-.026 1.777.24 3.609.705 5.359zm212.115 102.221a10.536 10.536 0 0 0 2.621-1.27l25 69.342-27.325 20.867v-87.558a3.32 3.32 0 0 0-.296-1.381zm-8.516-1.326c.423.31.888.591 1.381.817l.042.028h.056l.044.028.042.028h.015l.028.028.619.253a3.465 3.465 0 0 0-.353 1.523v88.009l-26.972-23.151 25.098-67.563zm-70.004-7.98c3.862 0 6.993 3.13 6.993 6.993s-3.131 6.993-6.993 6.993a6.993 6.993 0 1 1 0-13.986zm-47.826-5.189c4.483 0 8.135 3.637 8.135 8.121s-3.652 8.121-8.135 8.121-8.121-3.637-8.121-8.121 3.637-8.121 8.121-8.121zm79.522-139.19a9.133 9.133 0 0 1 9.135 9.136 9.133 9.133 0 0 1-9.135 9.137 9.134 9.134 0 0 1-9.137-9.137 9.135 9.135 0 0 1 9.137-9.136zM360.006 295c9.094 0 16.468 7.387 16.468 16.496 0 9.08-7.374 16.468-16.468 16.468-9.109 0-16.469-7.388-16.469-16.468 0-9.109 7.359-16.496 16.469-16.496zm-78.957-47.516-.015-.057v-.057l-.014-.057-.015-.057-.014-.056v-.056l-.014-.086-.015-.056-.016-.056-.014-.058v-.056l-.028-.057-.014-.057-.015-.057v-.057l-.027-.056v-.058l-.028-.084-.015-.027-.014-.086-.014-.027-.028-.084v-.029l-.028-.084-.014-.028-.028-.085v-.027l-.028-.086-.014-.027-.028-.084-.014-.029-.028-.084-.044-.113-.042-.112-.042-.113-.042-.112-.042-.113h-.015l-.042-.084v-.028l-.042-.085h-.014l-.043-.112-.042-.085-.016-.028-.042-.084-.014-.028-.042-.085h-.015l-.028-.085-.014-.027-.042-.085-.014-.028-.043-.057-.027-.027-.028-.086-.028-.027-.042-.057-.016-.057-.042-.057-.015-.027-.042-.057-.027-.057-.043-.057-.027-.027-.028-.057-.028-.057-.028-.028-.042-.056-.027-.057-.028-.057-.044-.028-.028-.056-.028-.029-.042-.056-.028-.058-.042-.056-.026-.024-.043-.056-.027-.028-.057-.057-.014-.028-.058-.056-.015-.029-.056-.084h-.015l-.056-.084h-.028l-.056-.086h-.015l-.056-.084h-.015l-.07-.084h-.016l-.07-.086-.168-.169a11.603 11.603 0 0 0-1.636-1.325l-.098-.057-.198-.112-.112-.056-.099-.058-.101-.056-.112-.057-.098-.057-.099-.057h-.014l-.213-.111-.112-.058-.1-.028-.112-.057-.112-.027v-.028l-.099-.028-.113-.057h-.015l-.098-.027-.112-.057-.112-.028-.129-.028-.112-.029v-.027l-.112-.028-.113-.028-.112-.027-.127-.028-.114-.028-.112-.029-.126-.027-.112-.028-.128-.028-.112-.027h-.126l-.114-.029-.127-.027h-.126l-.112-.029h-.128l-.127-.027h-.24l-.126-.028H270.866l-.098.028h-.311l-.07.027h-.14l-.099.029h-.128l-.07.027h-.098l-.07.029h-.142l-.098.027-.099.028h-.099l-.042.028h-.058l-.057.027h-.042l-.084.029h-.014l-.099.028-.086.028h-.028l-.084.027h-.028l-.056.028h-.07l-.028.028h-.086l-.014.027-.085.029h-.014l-.084.028h-.028l-.07.028h-.042l-.042.027-.072.029h-.028l-.084.027h-.014l-.084.057h-.015l-.084.028h-.028l-.058.028-.042.027-.057.029-.056.027h-.028l-.084.028h-.015l-.1.058-.07.027-.028.028-.069.028-.043.027h-.042l-.056.057h-.028l-.086.029v.027l-.084.028-.015.028-.07.027h-.027l-.057.057-.056.029h-.028l-.072.056h-.014l-.084.056-.085.057h-.014l-.07.029-.028.027-.058.028-.042.028-.042.028-.057.056h-.027l-.07.057-.084.057h-.015l-.056.057-.044.027-.042.029-.043.028-.027.028-.07.056h-.015l-.069.056h-.015l-.07.058-.016.028-.07.056-.027.028-.043.027-.042.029-.027.028-.057.056h-.028l-.07.057v.028l-.071.057h-.015l-.056.056-.028.029-.042.056-.042.028-.042.029-.042.056-.015.028-.07.056h-.016l-.07.085-.056.057-.015.027-.056.057-.028.029-.042.027-.042.057-.028.027-.042.057-.014.029-.072.057-.07.084-.126.141-.028.057-.028.027-.042.058-.014.028-.059.056c-.168.226-.322.451-.479.677l-.042.085a9.71 9.71 0 0 0-1.381 3.694l-80.805 153.656c-.946 1.636-.367 3.75 1.283 4.71 1.649.958 3.764.365 4.71-1.271l41.353-71.625 39.394 31.076v39.873a3.474 3.474 0 0 0 3.469 3.468 3.465 3.465 0 0 0 3.469-3.468v-40.325l39.577-31.188 41.68 72.189c.943 1.636 3.058 2.229 4.707 1.271 1.651-.96 2.229-3.074 1.285-4.71l-80.802-153.651z" fill-rule="evenodd" clip-rule="evenodd" fill="#ffffff" class="fill-000000"></path></svg>