<svg viewBox="0 0 512 512" xml:space="preserve" xmlns="http://www.w3.org/2000/svg"><path d="M361.94 147.56h-31.96c-3.87 0-7-3.13-7-7s3.13-7 7-7h24.96v-71.7c0-4.36-3.55-7.91-7.91-7.91H164.97c-4.36 0-7.91 3.55-7.91 7.91v71.7h17.96V78.91c0-3.87 3.13-7 7-7h147.96c3.87 0 7 3.13 7 7v32.96c0 3.87-3.13 7-7 7s-7-3.13-7-7V85.91H189.02v54.65c0 3.87-3.13 7-7 7h-31.96c-3.87 0-7-3.13-7-7v-78.7c0-12.08 9.83-21.91 21.91-21.91h182.06c12.08 0 21.91 9.83 21.91 21.91v78.7c0 3.86-3.13 7-7 7z" fill="#1b3954" class="fill-16ade1"></path><path d="M460.02 233.25h-63.38c-3.87 0-7-3.13-7-7v-33.22h-85.99v33.22c0 3.87-3.13 7-7 7h-81.3c-3.87 0-7-3.13-7-7v-33.22h-85.99v33.22c0 3.87-3.13 7-7 7H51.98c-2.39 0-4.62-1.22-5.9-3.24a6.991 6.991 0 0 1-.44-6.72l39.95-85.68a6.986 6.986 0 0 1 6.34-4.04h328.12c2.72 0 5.19 1.58 6.34 4.04l12.59 26.99c1.63 3.5.12 7.67-3.39 9.3-3.5 1.63-7.67.12-9.3-3.39l-10.7-22.95H96.4l-33.43 71.68h45.39v-33.22c0-3.87 3.13-7 7-7h99.99c3.87 0 7 3.13 7 7v33.22h67.3v-33.22c0-3.87 3.13-7 7-7h99.99c3.87 0 7 3.13 7 7v33.22h45.39l-4.45-9.54c-1.63-3.5-.12-7.67 3.39-9.3 3.5-1.63 7.67-.12 9.3 3.39l9.09 19.5c1.01 2.17.84 4.7-.44 6.72a7.02 7.02 0 0 1-5.9 3.24z" fill="#000000" class="fill-1b3954"></path><path d="M441.26 193.03c-1.84 0-3.64-.75-4.95-2.05-.32-.32-.61-.68-.87-1.07a7.043 7.043 0 0 1-1.18-3.88c0-.46.05-.92.14-1.37.09-.45.22-.89.4-1.31s.39-.83.64-1.21c.26-.38.55-.74.87-1.06a7.079 7.079 0 0 1 4.95-2.05c1.85 0 3.65.75 4.95 2.05.33.32.62.68.87 1.06s.47.79.65 1.21c.17.42.31.86.4 1.31.09.45.13.91.13 1.37 0 .46-.04.92-.13 1.37-.09.44-.23.88-.4 1.31-.18.42-.4.83-.65 1.2-.25.39-.54.75-.87 1.07-1.3 1.3-3.1 2.05-4.95 2.05zM115.36 277.95H19.92c-3.87 0-7-3.13-7-7v-44.7c0-3.87 3.13-7 7-7h95.44c3.87 0 7 3.13 7 7v44.7c0 3.87-3.13 7-7 7zm-88.44-14h81.44v-30.7H26.92v30.7zM296.65 277.95h-81.3c-3.87 0-7-3.13-7-7v-44.7c0-3.87 3.13-7 7-7h81.3c3.87 0 7 3.13 7 7v44.7c0 3.87-3.13 7-7 7zm-74.3-14h67.3v-30.7h-67.3v30.7zM492.08 277.95h-95.44c-3.87 0-7-3.13-7-7v-44.7c0-3.87 3.13-7 7-7h95.44c3.87 0 7 3.13 7 7v44.7c0 3.87-3.13 7-7 7zm-88.44-14h81.44v-30.7h-81.44v30.7z" fill="#000000" class="fill-1b3954"></path><path d="M460.02 472.06H51.98c-3.87 0-7-3.13-7-7V307.27c0-3.87 3.13-7 7-7s7 3.13 7 7v150.79h394.03V277.95h-49.38v33.22c0 3.87-3.13 7-7 7h-99.99c-3.87 0-7-3.13-7-7v-33.22h-67.3v33.22c0 3.87-3.13 7-7 7h-99.99c-3.87 0-7-3.13-7-7v-33.22H51.98c-3.87 0-7-3.13-7-7s3.13-7 7-7h63.38c3.87 0 7 3.13 7 7v33.22h85.99v-33.22c0-3.87 3.13-7 7-7h81.3c3.87 0 7 3.13 7 7v33.22h85.99v-33.22c0-3.87 3.13-7 7-7h63.38c3.87 0 7 3.13 7 7v194.11c0 3.86-3.14 7-7 7zM192.62 193.03h-54.53c-3.87 0-7-3.13-7-7v-45.47c0-3.87 3.13-7 7-7h54.53c3.87 0 7 3.13 7 7v45.47c0 3.87-3.13 7-7 7zm-47.53-14h40.53v-31.47h-40.53v31.47z" fill="#000000" class="fill-1b3954"></path><path d="M192.62 472.06h-54.53c-3.87 0-7-3.13-7-7V311.17c0-3.87 3.13-7 7-7h54.53c3.87 0 7 3.13 7 7v153.89c0 3.86-3.13 7-7 7zm-47.53-14h40.53V318.17h-40.53v139.89z" fill="#000000" class="fill-1b3954"></path><path d="M215.35 318.17h-99.99c-3.87 0-7-3.13-7-7V186.03c0-3.87 3.13-7 7-7h99.99c3.87 0 7 3.13 7 7v125.14c0 3.86-3.13 7-7 7zm-92.99-14h85.99V193.03h-85.99v111.14z" fill="#1b3954" class="fill-16ade1"></path><g><path d="M373.91 193.03h-54.53c-3.87 0-7-3.13-7-7v-45.47c0-3.87 3.13-7 7-7h54.53c3.87 0 7 3.13 7 7v45.47c0 3.87-3.13 7-7 7zm-47.53-14h40.53v-31.47h-40.53v31.47zM373.91 472.06h-54.53c-3.87 0-7-3.13-7-7V311.17c0-3.87 3.13-7 7-7h54.53c3.87 0 7 3.13 7 7v52.96c0 3.87-3.13 7-7 7s-7-3.13-7-7v-45.96h-40.53v139.89h40.53v-49c0-3.87 3.13-7 7-7s7 3.13 7 7v56c0 3.86-3.13 7-7 7z" fill="#000000" class="fill-1b3954"></path><path d="M373.91 395.11c-1.84 0-3.64-.75-4.95-2.05a6.818 6.818 0 0 1-1.51-2.27 7.043 7.043 0 0 1-.54-2.68 7.043 7.043 0 0 1 .54-2.68 6.818 6.818 0 0 1 1.51-2.27c.32-.32.68-.61 1.06-.87.38-.25.79-.47 1.21-.64.43-.18.87-.31 1.31-.4.91-.19 1.83-.19 2.74 0 .44.09.89.22 1.31.4.42.17.83.39 1.21.64.38.26.74.55 1.06.87a6.818 6.818 0 0 1 1.51 2.27 7.043 7.043 0 0 1 .54 2.68 7.043 7.043 0 0 1-.54 2.68 6.818 6.818 0 0 1-1.51 2.27 7.079 7.079 0 0 1-4.95 2.05z" fill="#000000" class="fill-1b3954"></path><path d="M396.64 318.17h-99.99c-3.87 0-7-3.13-7-7V186.03c0-3.87 3.13-7 7-7h99.99c3.87 0 7 3.13 7 7v125.14c0 3.86-3.14 7-7 7zm-92.99-14h85.99V193.03h-85.99v111.14z" fill="#1b3954" class="fill-16ade1"></path></g></svg>